<?xml version="1.0" encoding="UTF-8" standalone="no"?>
<!DOCTYPE svg PUBLIC "-//W3C//DTD SVG 1.1//EN" "http://www.w3.org/Graphics/SVG/1.1/DTD/svg11.dtd">
<svg width="100%" height="100%" viewBox="0 0 244 378" version="1.1" xmlns="http://www.w3.org/2000/svg" xmlns:xlink="http://www.w3.org/1999/xlink" xml:space="preserve" xmlns:serif="http://www.serif.com/" style="fill-rule:evenodd;clip-rule:evenodd;stroke-linejoin:round;stroke-miterlimit:2;">
    <g transform="matrix(1,0,0,1,-1858.57,-1631.87)">
        <g id="Artboard1" transform="matrix(0.324588,0,0,0.531689,1327.5,863.666)">
            <rect x="1636.14" y="1444.84" width="750" height="710.073" style="fill:none;"/>
            <g transform="matrix(-7.02311,-4.2875,7.02311,-4.2875,2275.42,2642.12)">
                <path d="M145.849,64.186C145.849,56.679 139.764,50.593 132.256,50.593L73.665,50.593C66.158,50.593 60.072,56.679 60.072,64.186L60.072,64.186C60.072,71.693 66.158,77.779 73.665,77.779L132.256,77.779C139.764,77.779 145.849,71.693 145.849,64.186L145.849,64.186Z" style="fill:rgb(86,86,86);"/>
                <g transform="matrix(6.12323e-17,-1,1,6.12323e-17,68.0702,196.443)">
                    <path d="M145.849,64.186C145.849,56.679 139.764,50.593 132.256,50.593L73.665,50.593C66.158,50.593 60.072,56.679 60.072,64.186L60.072,64.186C60.072,71.693 66.158,77.779 73.665,77.779L132.256,77.779C139.764,77.779 145.849,71.693 145.849,64.186L145.849,64.186Z" style="fill:rgb(86,86,86);"/>
                </g>
            </g>
        </g>
    </g>
</svg>
