<?xml version="1.0" encoding="UTF-8" standalone="no"?>
<!DOCTYPE svg PUBLIC "-//W3C//DTD SVG 1.1//EN" "http://www.w3.org/Graphics/SVG/1.1/DTD/svg11.dtd">
<svg width="100%" height="100%" viewBox="0 0 352 352" version="1.1" xmlns="http://www.w3.org/2000/svg" xmlns:xlink="http://www.w3.org/1999/xlink" xml:space="preserve" xmlns:serif="http://www.serif.com/" style="fill-rule:evenodd;clip-rule:evenodd;stroke-linejoin:round;stroke-miterlimit:2;">
    <g transform="matrix(1,0,0,1,-1858.57,-1643.68)">
        <g id="Artboard1" transform="matrix(0.469113,0,0,0.495442,1091.03,927.847)">
            <rect x="1636.14" y="1444.84" width="750" height="710.073" style="fill:none;"/>
            <g transform="matrix(21.7923,0,0,20.6342,-1549.86,-419.41)">
                <g transform="matrix(5.14701e-17,-0.387287,0.302906,5.40351e-17,143.964,147.429)">
                    <path d="M145.849,64.186C145.849,56.679 141.09,50.593 135.218,50.593L70.703,50.593C64.832,50.593 60.072,56.679 60.072,64.186L60.072,64.186C60.072,71.693 64.832,77.779 70.703,77.779L135.218,77.779C141.09,77.779 145.849,71.693 145.849,64.186L145.849,64.186Z" style="fill:rgb(86,86,86);"/>
                </g>
                <g transform="matrix(-0.387287,-7.51845e-17,7.25828e-17,-0.302906,203.282,126.996)">
                    <path d="M145.849,64.186C145.849,56.679 141.09,50.593 135.218,50.593L70.703,50.593C64.832,50.593 60.072,56.679 60.072,64.186L60.072,64.186C60.072,71.693 64.832,77.779 70.703,77.779L135.218,77.779C141.09,77.779 145.849,71.693 145.849,64.186L145.849,64.186Z" style="fill:rgb(86,86,86);"/>
                </g>
            </g>
        </g>
    </g>
</svg>
