<?xml version="1.0" encoding="UTF-8" standalone="no"?>
<!DOCTYPE svg PUBLIC "-//W3C//DTD SVG 1.1//EN" "http://www.w3.org/Graphics/SVG/1.1/DTD/svg11.dtd">
<svg width="100%" height="100%" viewBox="0 0 750 750" version="1.1" xmlns="http://www.w3.org/2000/svg" xmlns:xlink="http://www.w3.org/1999/xlink" xml:space="preserve" xmlns:serif="http://www.serif.com/" style="fill-rule:evenodd;clip-rule:evenodd;stroke-linejoin:round;stroke-miterlimit:2;">
    <g transform="matrix(1,0,0,1,-1636,-1444)">
        <g id="Artboard1" transform="matrix(1,0,0,1.05623,-0.144864,-82.0807)">
            <rect x="1636.14" y="1444.84" width="750" height="710.073" style="fill:none;"/>
            <g transform="matrix(-9.1879,0,0,8.69877,3781.63,-7671.4)">
                <path d="M177.862,1078.73L184.212,1085.08L181.301,1085.08C180.145,1085.08 179.207,1086.02 179.207,1087.18L179.207,1090.02C179.207,1091.17 180.145,1092.11 181.301,1092.11L191.242,1092.11L197.648,1098.52L178.709,1098.52C175.447,1098.52 172.799,1095.87 172.799,1092.61L172.799,1084.58C172.799,1081.61 175.001,1079.14 177.862,1078.73ZM187.743,1078.67L206.686,1078.67C209.948,1078.67 212.596,1081.32 212.596,1084.58L212.596,1092.61C212.596,1095.58 210.393,1098.05 207.53,1098.46L201.183,1092.11L204.095,1092.11C205.25,1092.11 206.188,1091.17 206.188,1090.02L206.188,1087.18C206.188,1086.02 205.25,1085.08 204.095,1085.08L194.154,1085.08L187.743,1078.67Z" style="fill:rgb(191,191,191);"/>
            </g>
        </g>
    </g>
</svg>
