<?xml version="1.0" encoding="UTF-8" standalone="no"?>
<!DOCTYPE svg PUBLIC "-//W3C//DTD SVG 1.1//EN" "http://www.w3.org/Graphics/SVG/1.1/DTD/svg11.dtd">
<svg width="100%" height="100%" viewBox="0 0 750 750" version="1.1" xmlns="http://www.w3.org/2000/svg" xmlns:xlink="http://www.w3.org/1999/xlink" xml:space="preserve" xmlns:serif="http://www.serif.com/" style="fill-rule:evenodd;clip-rule:evenodd;stroke-linejoin:round;stroke-miterlimit:2;">
    <g transform="matrix(1,0,0,1,-1636,-1444)">
        <g id="Artboard1" transform="matrix(1,0,0,1.05623,-0.144864,-82.0807)">
            <rect x="1636.14" y="1444.84" width="750" height="710.073" style="fill:none;"/>
            <g transform="matrix(9.1879,0,0,8.69877,608.586,-7669.57)">
                <g transform="matrix(0.636181,0,0,0.109274,88.2803,976.076)">
                    <path d="M95.151,1091.21C95.151,1075.01 92.897,1061.89 90.115,1061.89C85.711,1061.89 79.348,1061.89 74.944,1061.89C72.162,1061.89 69.907,1075.01 69.907,1091.21L69.907,1091.21C69.907,1107.4 72.162,1120.53 74.944,1120.53C79.348,1120.53 85.711,1120.53 90.115,1120.53C92.897,1120.53 95.151,1107.4 95.151,1091.21L95.151,1091.21Z" style="fill:rgb(191,191,191);"/>
                </g>
                <g transform="matrix(0.711974,-0.711974,0.0772682,0.0772682,9.59722,1063.04)">
                    <path d="M95.151,1091.21C95.151,1083.43 94.816,1075.97 94.219,1070.47C93.623,1064.97 92.813,1061.89 91.969,1061.89L73.089,1061.89C72.245,1061.89 71.436,1064.97 70.839,1070.47C70.243,1075.97 69.907,1083.43 69.907,1091.21L69.907,1091.21C69.907,1098.99 70.243,1106.44 70.839,1111.94C71.436,1117.44 72.245,1120.53 73.089,1120.53L91.969,1120.53C92.813,1120.53 93.623,1117.44 94.219,1111.94C94.816,1106.44 95.151,1098.99 95.151,1091.21L95.151,1091.21Z" style="fill:rgb(191,191,191);"/>
                </g>
                <g transform="matrix(-0.636181,0,0,-0.109274,217.025,1201.12)">
                    <path d="M95.151,1091.21C95.151,1075.01 92.897,1061.89 90.115,1061.89C85.711,1061.89 79.348,1061.89 74.944,1061.89C72.162,1061.89 69.907,1075.01 69.907,1091.21L69.907,1091.21C69.907,1107.4 72.162,1120.53 74.944,1120.53C79.348,1120.53 85.711,1120.53 90.115,1120.53C92.897,1120.53 95.151,1107.4 95.151,1091.21L95.151,1091.21Z" style="fill:rgb(191,191,191);"/>
                </g>
                <g transform="matrix(-0.480655,-1.90465e-17,-3.27153e-18,-0.109274,178.489,1201.12)">
                    <path d="M95.151,1091.21C95.151,1075.01 92.167,1061.89 88.486,1061.89L76.573,1061.89C72.892,1061.89 69.907,1075.01 69.907,1091.21L69.907,1091.21C69.907,1107.4 72.892,1120.53 76.573,1120.53L88.486,1120.53C92.167,1120.53 95.151,1107.4 95.151,1091.21L95.151,1091.21Z" style="fill:rgb(191,191,191);"/>
                </g>
                <g transform="matrix(-0.480655,-1.90465e-17,-3.27153e-18,-0.109274,206.153,1214.56)">
                    <path d="M95.151,1091.21C95.151,1075.01 92.167,1061.89 88.486,1061.89L76.573,1061.89C72.892,1061.89 69.907,1075.01 69.907,1091.21L69.907,1091.21C69.907,1107.4 72.892,1120.53 76.573,1120.53L88.486,1120.53C92.167,1120.53 95.151,1107.4 95.151,1091.21L95.151,1091.21Z" style="fill:rgb(191,191,191);"/>
                </g>
            </g>
        </g>
    </g>
</svg>
